<svg data-v-423bf9ae="" xmlns="http://www.w3.org/2000/svg" viewBox="0 0 115.15834209889029 60" class="font"><!----><!----><!----><g data-v-423bf9ae="" id="b3c92c87-613c-4367-bf5f-77d8b314ed04" fill="#F9B200" transform="matrix(6.1287033788129195,0,0,6.1287033788129195,-8.22394362387513e-7,-11.889684428747124)"><path d="M3.49 7.57L3.49 1.94L5.37 1.94L5.37 5.15L5.18 5.15L5.18 8.65L5.37 8.65L5.37 11.46L0.86 11.46L0.86 10.86L0 10.86L0 9.75L0.52 9.75L0.52 9.56L0 9.56L0 9.31L1.85 9.31L1.85 9.99L3.51 9.99L3.51 9.05L3.51 9.05Q3.51 8.57 3.49 7.72L3.49 7.72L2.04 7.72L2.04 7.57L3.49 7.57ZM4.06 7.57L3.51 7.57L3.51 7.72L4.06 7.72L4.06 7.57ZM1.90 11.73L1.90 11.60L4.30 11.60L4.30 11.73L1.90 11.73ZM9.06 1.96L9.06 1.96L9.06 1.96Q10.69 1.96 11.25 3.01L11.25 3.01L11.25 3.01Q11.63 3.80 11.63 4.56L11.63 4.56L11.61 4.56L11.61 4.56Q10.50 4.66 10.09 4.66L10.09 4.66L10.09 4.66Q10.09 4.12 9.75 3.75L9.75 3.75L9.75 3.75Q9.44 3.57 9.17 3.57L9.17 3.57L8.90 3.57L8.90 3.57Q8.20 3.57 8.05 4.11L8.05 4.11L8.05 4.11Q8.02 4.27 8.02 4.35L8.02 4.35L8.02 4.50L8.02 4.50Q8.02 5.26 8.83 5.61L8.83 5.61L8.83 5.61Q8.89 5.67 9.95 6.12L9.95 6.12L9.95 6.12Q10.51 6.38 10.99 6.76L10.99 6.76L10.99 6.77L9.27 6.77L9.27 6.97L11.53 6.97L11.53 7.24L11.82 7.24L11.82 10.21L11.26 10.21L11.26 11.73L6.91 11.73L6.91 10.21L5.89 10.21L5.89 9.18L6.47 9.18L6.47 8.83L5.89 8.83L5.89 8.59L7.88 8.59L7.88 10.21L9.91 10.21L9.91 7.77L8.39 7.77L8.39 6.97L6.49 6.97L6.49 6.77L7.41 6.77L7.41 6.76L7.41 6.76Q6.21 5.96 6.21 4.50L6.21 4.50L6.21 4.37L6.21 4.37Q6.21 3.14 6.96 2.51L6.96 2.51L6.96 2.51Q7.64 1.96 9.06 1.96ZM11.53 6.97L11.53 6.77L12.22 6.77L12.22 6.97L11.53 6.97ZM5.23 9.18L5.23 8.83L5.89 8.83L5.89 9.18L5.23 9.18ZM9.61 8.83L9.61 8.83L9.82 8.83L9.82 8.83Q9.85 8.83 9.85 8.86L9.85 8.86L9.85 8.91L9.67 8.91L9.67 8.97L9.83 8.97L9.83 9.02L9.83 9.02Q9.83 9.05 9.80 9.05L9.80 9.05L9.67 9.05L9.67 9.12L9.85 9.12L9.85 9.17L9.85 9.17Q9.85 9.19 9.82 9.19L9.82 9.19L9.61 9.19L9.61 9.19Q9.58 9.19 9.58 9.17L9.58 9.17L9.58 8.86L9.58 8.86Q9.58 8.83 9.61 8.83ZM9.53 9.31L9.53 9.31L9.59 9.31L9.59 9.31Q9.60 9.31 9.71 9.43L9.71 9.43L9.71 9.43Q9.75 9.31 9.78 9.31L9.78 9.31L9.83 9.31L9.83 9.31Q9.86 9.31 9.86 9.34L9.86 9.34L9.86 9.34Q9.72 9.50 9.72 9.68L9.72 9.68L9.67 9.68L9.67 9.68Q9.64 9.68 9.63 9.49L9.63 9.49L9.63 9.49Q9.53 9.36 9.53 9.31ZM9.48 9.79L9.48 9.79L9.54 9.79L9.54 9.79Q9.58 9.79 9.63 10.00L9.63 10.00L9.66 10.00L9.66 10.00Q9.70 9.79 9.73 9.79L9.73 9.79L9.80 9.79L9.80 9.79Q9.83 9.80 9.83 9.82L9.83 9.82L9.83 10.12L9.83 10.12Q9.83 10.16 9.80 10.16L9.80 10.16L9.75 10.16L9.75 9.95L9.73 9.95L9.67 10.16L9.63 10.16L9.63 10.16Q9.59 10.16 9.54 9.95L9.54 9.95L9.53 9.95L9.53 10.16L9.48 10.16L9.48 10.16Q9.45 10.16 9.45 10.12L9.45 10.12L9.45 9.82L9.45 9.82Q9.45 9.79 9.48 9.79ZM11.35 10.62L11.35 10.29L11.52 10.29L11.52 10.29Q11.65 10.29 11.65 10.42L11.65 10.42L11.65 10.42Q11.61 10.42 11.61 10.45L11.61 10.45L11.61 10.45Q11.66 10.51 11.66 10.56L11.66 10.56L11.66 10.56Q11.62 10.66 11.48 10.66L11.48 10.66L11.39 10.66L11.39 10.66Q11.35 10.66 11.35 10.62L11.35 10.62ZM11.55 10.37L11.45 10.37L11.45 10.43L11.52 10.43L11.52 10.43Q11.55 10.43 11.55 10.40L11.55 10.40L11.55 10.37ZM11.53 10.49L11.45 10.49L11.45 10.58L11.53 10.58L11.53 10.58Q11.57 10.58 11.57 10.54L11.57 10.54L11.57 10.53L11.57 10.53Q11.57 10.49 11.53 10.49L11.53 10.49ZM11.35 11.10L11.35 10.77L11.42 10.77L11.42 10.77Q11.46 10.77 11.57 10.99L11.57 10.99L11.58 10.99L11.58 10.77L11.66 10.77L11.66 11.10L11.66 11.10Q11.66 11.14 11.63 11.14L11.63 11.14L11.59 11.14L11.59 11.14Q11.58 11.14 11.44 10.93L11.44 10.93L11.44 11.10L11.44 11.10Q11.44 11.14 11.40 11.14L11.40 11.14L11.39 11.14L11.39 11.14Q11.35 11.14 11.35 11.10L11.35 11.10ZM15.63 1.96L15.63 1.96L15.63 1.96Q17.26 1.96 17.81 3.01L17.81 3.01L17.81 3.01Q18.20 3.80 18.20 4.56L18.20 4.56L18.18 4.56L18.18 4.56Q17.07 4.66 16.66 4.66L16.66 4.66L16.66 4.66Q16.66 4.12 16.32 3.75L16.32 3.75L16.32 3.75Q16.01 3.57 15.74 3.57L15.74 3.57L15.47 3.57L15.47 3.57Q14.77 3.57 14.62 4.11L14.62 4.11L14.62 4.11Q14.59 4.27 14.59 4.35L14.59 4.35L14.59 4.50L14.59 4.50Q14.59 5.26 15.39 5.61L15.39 5.61L15.39 5.61Q15.46 5.67 16.52 6.12L16.52 6.12L16.52 6.12Q17.08 6.38 17.55 6.76L17.55 6.76L17.55 6.77L15.84 6.77L15.84 6.97L18.10 6.97L18.10 7.24L18.39 7.24L18.39 10.21L17.83 10.21L17.83 11.73L13.48 11.73L13.48 10.21L12.46 10.21L12.46 9.18L13.04 9.18L13.04 8.83L12.46 8.83L12.46 8.59L14.44 8.59L14.44 10.21L16.48 10.21L16.48 7.77L14.96 7.77L14.96 6.97L13.06 6.97L13.06 6.77L13.98 6.77L13.98 6.76L13.98 6.76Q12.78 5.96 12.78 4.50L12.78 4.50L12.78 4.37L12.78 4.37Q12.78 3.14 13.53 2.51L13.53 2.51L13.53 2.51Q14.21 1.96 15.63 1.96ZM18.10 6.97L18.10 6.77L18.79 6.77L18.79 6.97L18.10 6.97ZM11.80 9.18L11.80 8.83L12.46 8.83L12.46 9.18L11.80 9.18ZM16.18 8.83L16.18 8.83L16.39 8.83L16.39 8.83Q16.42 8.83 16.42 8.86L16.42 8.86L16.42 8.91L16.24 8.91L16.24 8.97L16.40 8.97L16.40 9.02L16.40 9.02Q16.40 9.05 16.37 9.05L16.37 9.05L16.24 9.05L16.24 9.12L16.42 9.12L16.42 9.17L16.42 9.17Q16.42 9.19 16.39 9.19L16.39 9.19L16.18 9.19L16.18 9.19Q16.15 9.19 16.15 9.17L16.15 9.17L16.15 8.86L16.15 8.86Q16.15 8.83 16.18 8.83ZM16.10 9.31L16.10 9.31L16.16 9.31L16.16 9.31Q16.17 9.31 16.28 9.43L16.28 9.43L16.28 9.43Q16.32 9.31 16.35 9.31L16.35 9.31L16.40 9.31L16.40 9.31Q16.43 9.31 16.43 9.34L16.43 9.34L16.43 9.34Q16.29 9.50 16.29 9.68L16.29 9.68L16.24 9.68L16.24 9.68Q16.21 9.68 16.19 9.49L16.19 9.49L16.19 9.49Q16.10 9.36 16.10 9.31ZM16.05 9.79L16.05 9.79L16.11 9.79L16.11 9.79Q16.15 9.79 16.19 10.00L16.19 10.00L16.23 10.00L16.23 10.00Q16.27 9.79 16.30 9.79L16.30 9.79L16.37 9.79L16.37 9.79Q16.40 9.80 16.40 9.82L16.40 9.82L16.40 10.12L16.40 10.12Q16.40 10.16 16.37 10.16L16.37 10.16L16.32 10.16L16.32 9.95L16.30 9.95L16.24 10.16L16.19 10.16L16.19 10.16Q16.16 10.16 16.11 9.95L16.11 9.95L16.10 9.95L16.10 10.16L16.05 10.16L16.05 10.16Q16.02 10.16 16.02 10.12L16.02 10.12L16.02 9.82L16.02 9.82Q16.02 9.79 16.05 9.79ZM17.92 10.62L17.92 10.29L18.09 10.29L18.09 10.29Q18.22 10.29 18.22 10.42L18.22 10.42L18.22 10.42Q18.18 10.42 18.18 10.45L18.18 10.45L18.18 10.45Q18.23 10.51 18.23 10.56L18.23 10.56L18.23 10.56Q18.19 10.66 18.05 10.66L18.05 10.66L17.96 10.66L17.96 10.66Q17.92 10.66 17.92 10.62L17.92 10.62ZM18.12 10.37L18.02 10.37L18.02 10.43L18.09 10.43L18.09 10.43Q18.12 10.43 18.12 10.40L18.12 10.40L18.12 10.37ZM18.10 10.49L18.02 10.49L18.02 10.58L18.10 10.58L18.10 10.58Q18.14 10.58 18.14 10.54L18.14 10.54L18.14 10.53L18.14 10.53Q18.14 10.49 18.10 10.49L18.10 10.49ZM17.92 11.10L17.92 10.77L17.99 10.77L17.99 10.77Q18.03 10.77 18.14 10.99L18.14 10.99L18.15 10.99L18.15 10.77L18.23 10.77L18.23 11.10L18.23 11.10Q18.23 11.14 18.20 11.14L18.20 11.14L18.16 11.14L18.16 11.14Q18.15 11.14 18.01 10.93L18.01 10.93L18.01 11.10L18.01 11.10Q18.01 11.14 17.97 11.14L17.97 11.14L17.96 11.14L17.96 11.14Q17.92 11.14 17.92 11.10L17.92 11.10Z"></path></g><!----><!----></svg>